<?xml version="1.0" encoding="UTF-8" standalone="no"?>
<!DOCTYPE svg PUBLIC "-//W3C//DTD SVG 1.1//EN" "http://www.w3.org/Graphics/SVG/1.1/DTD/svg11.dtd">
<svg width="100%" height="100%" viewBox="0 0 14 16" version="1.1" xmlns="http://www.w3.org/2000/svg" xmlns:xlink="http://www.w3.org/1999/xlink" xml:space="preserve" xmlns:serif="http://www.serif.com/" style="fill-rule:evenodd;clip-rule:evenodd;stroke-linejoin:round;stroke-miterlimit:2;">
    <g transform="matrix(2.18687e-18,-0.0357143,0.0357143,2.18687e-18,-2.29286,16.0004)">
        <path d="M9.4,233.4C-3.1,245.9 -3.1,266.2 9.4,278.7L169.4,438.7C181.9,451.2 202.2,451.2 214.7,438.7C227.2,426.2 227.2,405.9 214.7,393.4L109.2,288L416,288C433.7,288 448,273.7 448,256C448,238.3 433.7,224 416,224L109.3,224L214.6,118.6C227.1,106.1 227.1,85.8 214.6,73.3C202.1,60.8 181.8,60.8 169.3,73.3L9.3,233.3L9.4,233.4Z" style="fill:rgb(16,36,41);fill-rule:nonzero;"/>
    </g>
</svg>
