<?xml version="1.0" encoding="UTF-8" standalone="no"?>
<!DOCTYPE svg PUBLIC "-//W3C//DTD SVG 1.1//EN" "http://www.w3.org/Graphics/SVG/1.1/DTD/svg11.dtd">
<svg width="100%" height="100%" viewBox="0 0 16 13" version="1.1" xmlns="http://www.w3.org/2000/svg" xmlns:xlink="http://www.w3.org/1999/xlink" xml:space="preserve" xmlns:serif="http://www.serif.com/" style="fill-rule:evenodd;clip-rule:evenodd;stroke-linejoin:round;stroke-miterlimit:2;">
    <g transform="matrix(0.5,0,0,0.5,0,0)">
        <g id="Page-1">
            <g id="Artboard">
                <g id="icon-twitter-dark">
                    <path id="Path" d="M28.711,6.477C28.731,6.761 28.731,7.046 28.731,7.33C28.731,16 22.132,25.99 10.071,25.99C6.355,25.99 2.904,24.914 0,23.046C0.528,23.107 1.036,23.127 1.584,23.127C4.65,23.127 7.472,22.091 9.726,20.325C6.843,20.264 4.426,18.376 3.594,15.777C4,15.838 4.406,15.878 4.833,15.878C5.421,15.878 6.01,15.797 6.558,15.655C3.553,15.046 1.299,12.406 1.299,9.218L1.299,9.137C2.173,9.624 3.188,9.929 4.264,9.97C2.497,8.792 1.34,6.782 1.34,4.508C1.34,3.289 1.665,2.173 2.233,1.198C5.462,5.178 10.315,7.777 15.756,8.061C15.655,7.574 15.594,7.066 15.594,6.558C15.594,2.944 18.518,0 22.152,0C24.041,0 25.746,0.792 26.944,2.071C28.426,1.787 29.848,1.239 31.107,0.487C30.619,2.01 29.584,3.289 28.223,4.102C29.543,3.959 30.822,3.594 32,3.086C31.107,4.386 29.99,5.543 28.711,6.477Z" style="fill:rgb(16,36,41);fill-rule:nonzero;"/>
                </g>
            </g>
        </g>
    </g>
</svg>
