<svg width="16" height="16" viewBox="0 0 16 16" fill="none" xmlns="http://www.w3.org/2000/svg">
<path d="M15.0387 5.20625C15.1387 5.47813 15.0543 5.78125 14.8387 5.975L13.8731 6.85313C13.6324 7.075 13.5168 7.4 13.5324 7.725C13.5356 7.81562 13.5387 7.90625 13.5387 8C13.5387 8.09375 13.5356 8.18437 13.5324 8.275C13.5168 8.60312 13.6293 8.92813 13.8731 9.14688L14.8387 10.025C15.0543 10.2187 15.1387 10.5219 15.0387 10.7937C14.9012 11.1656 14.7356 11.5219 14.5449 11.8656L14.3981 12.1187C14.1918 12.4625 13.9606 12.7875 13.7074 13.0938C13.5231 13.3187 13.2168 13.3937 12.9418 13.3062L11.7012 12.9125C11.3887 12.8125 11.0512 12.8781 10.7731 13.0562C10.6199 13.1531 10.4637 13.2469 10.3012 13.3281C10.0106 13.4781 9.78556 13.7406 9.71368 14.0594L9.43556 15.3313C9.37306 15.6156 9.15431 15.8406 8.86681 15.8875C8.43556 15.9594 7.9918 15.9969 7.53868 15.9969C7.08555 15.9969 6.6418 15.9594 6.21055 15.8875C5.92305 15.8406 5.7043 15.6156 5.6418 15.3313L5.36368 14.0594C5.29493 13.7406 5.0668 13.4781 4.77618 13.3281C4.61368 13.2437 4.45743 13.1531 4.3043 13.0562C4.0293 12.8781 3.68868 12.8125 3.37618 12.9125L2.13868 13.3094C1.86368 13.3969 1.55743 13.3188 1.37305 13.0969C1.11993 12.7906 0.88868 12.4656 0.68243 12.1219L0.535555 11.8687C0.34493 11.525 0.179305 11.1687 0.0418049 10.7969C-0.0581951 10.525 0.0261799 10.2219 0.241805 10.0281L1.20743 9.15C1.44805 8.92812 1.56368 8.60312 1.54805 8.27812C1.54493 8.1875 1.5418 8.09688 1.5418 8.00313C1.5418 7.90938 1.54493 7.81875 1.54805 7.72813C1.56368 7.4 1.45118 7.075 1.20743 6.85625L0.241805 5.975C0.0261799 5.78125 -0.0581951 5.47813 0.0418049 5.20625C0.179305 4.83438 0.34493 4.47813 0.535555 4.13438L0.68243 3.88125C0.88868 3.5375 1.11993 3.2125 1.37305 2.90625C1.55743 2.68125 1.86368 2.60625 2.13868 2.69375L3.3793 3.0875C3.6918 3.1875 4.0293 3.12187 4.30743 2.94375C4.46055 2.84687 4.6168 2.75312 4.7793 2.67188C5.06993 2.52187 5.29493 2.25937 5.3668 1.94062L5.64493 0.66875C5.70743 0.384375 5.92618 0.159375 6.21368 0.1125C6.64493 0.0375 7.08868 0 7.5418 0C7.99493 0 8.43868 0.0375 8.86993 0.109375C9.15743 0.15625 9.37618 0.38125 9.43868 0.665625L9.71681 1.9375C9.78556 2.25625 10.0106 2.51875 10.3043 2.66875C10.4668 2.75313 10.6231 2.84375 10.7762 2.94062C11.0512 3.11875 11.3918 3.18125 11.7043 3.08437L12.9449 2.69062C13.2199 2.60312 13.5262 2.68125 13.7106 2.90313C13.9637 3.20938 14.1949 3.53437 14.4012 3.87812L14.5481 4.13125C14.7387 4.475 14.9043 4.83125 15.0418 5.20312L15.0387 5.20625ZM7.5418 10.5C8.20485 10.5 8.84073 10.2366 9.30957 9.76777C9.77841 9.29893 10.0418 8.66304 10.0418 8C10.0418 7.33696 9.77841 6.70107 9.30957 6.23223C8.84073 5.76339 8.20485 5.5 7.5418 5.5C6.87876 5.5 6.24288 5.76339 5.77404 6.23223C5.3052 6.70107 5.0418 7.33696 5.0418 8C5.0418 8.66304 5.3052 9.29893 5.77404 9.76777C6.24288 10.2366 6.87876 10.5 7.5418 10.5Z" fill="#1386EB"/>
</svg>
