<svg width="16" height="16" viewBox="0 0 16 16" fill="none" xmlns="http://www.w3.org/2000/svg">
<path d="M4 0H6C6.55313 0 7 0.446875 7 1V4H3V1C3 0.446875 3.44687 0 4 0ZM0 8C0 6.34375 1.34375 5 3 5H7C8.65625 5 10 6.34375 10 8V14.5C10 15.3281 9.32812 16 8.5 16H1.5C0.671875 16 0 15.3281 0 14.5V8ZM7.5 10.5C7.5 9.83696 7.23661 9.20107 6.76777 8.73223C6.29893 8.26339 5.66304 8 5 8C4.33696 8 3.70107 8.26339 3.23223 8.73223C2.76339 9.20107 2.5 9.83696 2.5 10.5C2.5 11.163 2.76339 11.7989 3.23223 12.2678C3.70107 12.7366 4.33696 13 5 13C5.66304 13 6.29893 12.7366 6.76777 12.2678C7.23661 11.7989 7.5 11.163 7.5 10.5ZM8 2C8 1.73478 8.10536 1.48043 8.29289 1.29289C8.48043 1.10536 8.73478 1 9 1C9.26522 1 9.51957 1.10536 9.70711 1.29289C9.89464 1.48043 10 1.73478 10 2C10 2.26522 9.89464 2.51957 9.70711 2.70711C9.51957 2.89464 9.26522 3 9 3C8.73478 3 8.48043 2.89464 8.29289 2.70711C8.10536 2.51957 8 2.26522 8 2ZM12 1C12.2652 1 12.5196 1.10536 12.7071 1.29289C12.8946 1.48043 13 1.73478 13 2C13 2.26522 12.8946 2.51957 12.7071 2.70711C12.5196 2.89464 12.2652 3 12 3C11.7348 3 11.4804 2.89464 11.2929 2.70711C11.1054 2.51957 11 2.26522 11 2C11 1.73478 11.1054 1.48043 11.2929 1.29289C11.4804 1.10536 11.7348 1 12 1ZM14 2C14 1.73478 14.1054 1.48043 14.2929 1.29289C14.4804 1.10536 14.7348 1 15 1C15.2652 1 15.5196 1.10536 15.7071 1.29289C15.8946 1.48043 16 1.73478 16 2C16 2.26522 15.8946 2.51957 15.7071 2.70711C15.5196 2.89464 15.2652 3 15 3C14.7348 3 14.4804 2.89464 14.2929 2.70711C14.1054 2.51957 14 2.26522 14 2ZM15 4C15.2652 4 15.5196 4.10536 15.7071 4.29289C15.8946 4.48043 16 4.73478 16 5C16 5.26522 15.8946 5.51957 15.7071 5.70711C15.5196 5.89464 15.2652 6 15 6C14.7348 6 14.4804 5.89464 14.2929 5.70711C14.1054 5.51957 14 5.26522 14 5C14 4.73478 14.1054 4.48043 14.2929 4.29289C14.4804 4.10536 14.7348 4 15 4ZM14 8C14 7.73478 14.1054 7.48043 14.2929 7.29289C14.4804 7.10536 14.7348 7 15 7C15.2652 7 15.5196 7.10536 15.7071 7.29289C15.8946 7.48043 16 7.73478 16 8C16 8.26522 15.8946 8.51957 15.7071 8.70711C15.5196 8.89464 15.2652 9 15 9C14.7348 9 14.4804 8.89464 14.2929 8.70711C14.1054 8.51957 14 8.26522 14 8ZM12 4C12.2652 4 12.5196 4.10536 12.7071 4.29289C12.8946 4.48043 13 4.73478 13 5C13 5.26522 12.8946 5.51957 12.7071 5.70711C12.5196 5.89464 12.2652 6 12 6C11.7348 6 11.4804 5.89464 11.2929 5.70711C11.1054 5.51957 11 5.26522 11 5C11 4.73478 11.1054 4.48043 11.2929 4.29289C11.4804 4.10536 11.7348 4 12 4Z" fill="#1386EB"/>
</svg>
