<svg width="641" height="64" viewBox="0 0 641 64" fill="none" xmlns="http://www.w3.org/2000/svg">
<path d="M554.376 20.7819C567.986 20.7008 581.609 20.7339 595.233 20.7339C595.26 21.1446 595.302 21.5561 595.33 21.9668C581.9 22.3642 568.485 22.8064 555.042 23.0945C553.53 23.1268 551.809 22.2781 550.2 21.8376C551.587 21.47 552.961 20.7902 554.376 20.7819ZM21.4078 31.4217C25.7223 31.979 29.8151 32.6819 34.0048 33.3187C31.1608 34.612 28.3446 35.9103 25.4729 37.1945C24.7237 37.5257 23.5583 37.7824 22.9617 38.1302C18.7998 40.5107 15.0541 42.9616 10.573 45.2833C5.70353 47.7979 7.14622 49.2171 17.0378 49.8124C27.3734 50.4334 37.9172 50.7249 48.3915 51.1206C53.0945 51.2987 57.8391 51.3823 62.556 51.5082C62.5976 51.8452 62.639 52.183 62.6806 52.5208C58.2967 52.7717 53.8851 52.9836 49.5566 53.2991C48.1832 53.4001 47.0178 53.7777 45.7554 54.0286C46.9207 54.3184 48.0029 54.8177 49.2653 54.8657C56.965 55.1571 64.72 55.2813 72.378 55.6192C74.0567 55.6937 76.8176 56.7428 76.6927 56.7883C71.1712 58.9287 78.3019 58.6157 81.0904 58.6256C101.11 58.6993 121.143 58.7382 141.162 58.6298C197.487 58.3251 253.812 57.921 310.138 57.608C326.744 57.5153 343.364 57.5931 359.97 57.5931C360.026 57.9972 360.081 58.4021 360.137 58.8053C295.612 59.4743 231.074 60.1442 166.55 60.8132C166.591 61.0823 166.619 61.3514 166.661 61.6213C265.674 60.978 364.687 60.3355 464.852 59.6846C462.063 60.2162 460.288 60.5532 457.166 61.1494C491.1 62.4998 522.856 65.9625 555.999 62.5214C535.161 61.931 514.324 61.3406 493.5 60.7511C499.909 60.3545 506.18 60.3926 512.451 60.347C527.143 60.2386 541.848 60.1624 556.512 59.9157C560.938 59.8411 571.911 60.3412 561.076 57.4532C560.771 57.3712 562.2 56.8131 562.284 56.4654C562.478 55.6838 562.395 54.8947 562.311 54.1097C562.27 53.6601 561.451 52.8926 561.965 52.8106C569.886 51.528 575.56 48.7708 586.77 49.5888C590.973 49.8952 595.704 49.7304 600.102 49.5499C603.529 49.4092 606.789 48.9107 610.118 48.5712C606.969 48.2839 603.848 47.8062 600.643 47.7482C593.679 47.6223 586.659 47.7093 579.667 47.7093C580.347 47.0411 581.207 46.8473 582.095 46.8358C590.446 46.7289 598.964 46.9194 607.066 46.4532C610.993 46.2263 616.292 44.962 617.291 43.8649C621.231 39.5129 619.358 38.9623 604.236 38.8331C602.03 38.8141 599.838 38.7644 597.646 38.7288C603.987 38.4589 610.34 38.5318 616.653 38.4167C618.678 38.3794 621.869 37.9712 622.369 37.5175C625.296 34.8745 627.571 32.1669 630.151 29.3923C624.491 29.2896 618.026 29.3161 611.755 28.999C608.537 28.8367 605.665 28.0609 602.641 27.5624C606.068 26.6963 609.189 25.2664 612.976 25.09C619.4 24.7895 626.35 25.5463 632.87 25.3152C635.825 25.2101 638.281 23.8074 640.973 22.9935C638.614 22.7029 636.325 22.2376 633.883 22.1531C626.836 21.9089 619.719 21.8178 611.811 21.6489C616.93 19.6219 614.669 18.8775 608.162 18.7326C581.803 18.1456 555.458 17.5403 532.109 17.0104C533.622 16.6834 538.019 16.1021 540.517 15.0969C543.347 13.9625 544.456 12.4465 546.191 11.1912C511.632 12.3488 474.355 13.5974 437.078 14.846C436.953 14.4494 436.814 14.0536 436.675 13.657C463.673 12.7114 490.781 11.9629 517.654 10.7623C541.543 9.69503 565.183 8.1268 588.934 6.78048C588.698 6.41036 588.476 6.03941 588.24 5.66929C538.477 6.21495 488.7 6.76143 438.937 7.30791C448.676 5.79681 459.122 4.54738 469.916 4.19134C482.845 3.76492 496.136 4.38673 509.107 4.01827C519.998 3.70943 530.569 2.5345 541.404 1.92675C548.605 1.52186 556.013 1.43905 563.324 1.21218C563.102 0.808117 562.894 0.404062 562.672 -1.08598e-06C515.67 1.64772 468.681 3.29377 421.678 4.94149C421.762 5.14352 421.831 5.34474 421.9 5.5476C428.282 5.41347 434.677 5.28098 441.059 5.14768C438.673 6.29942 435.843 6.81526 432.805 6.96678C407.861 8.21209 382.986 9.66275 357.889 10.5255C319.127 11.8578 280.199 12.7156 241.382 13.8855C216.174 14.6456 191.064 15.6922 165.856 16.4283C156.478 16.7024 146.711 16.0963 137.541 16.5898C132.13 16.8796 127.552 18.5381 122.585 19.5805C127.427 19.7221 132.255 19.8736 137.097 19.9945C138.193 20.0227 139.33 19.896 140.426 19.9274C142.23 19.9796 144.02 20.1013 145.809 20.1949C144.935 20.7687 144.547 21.6654 143.104 21.8658C134.613 23.0357 126.095 24.7365 117.189 24.9799C83.879 25.8924 50.4029 26.2749 17.0101 26.9489C11.7105 27.0557 6.52177 27.6378 1.26381 28.0004C1.1667 28.32 1.06964 28.6405 0.972528 28.9601C7.79816 29.7757 14.6793 30.549 21.4078 31.4217Z" fill="#1386EB"/>
</svg>
