<svg width="16" height="16" viewBox="0 0 16 16" fill="none" xmlns="http://www.w3.org/2000/svg">
<path d="M13.5 2H6.5C6.225 2 6 2.225 6 2.5V3H4V2.5C4 1.11875 5.11875 0 6.5 0H13.5C14.8813 0 16 1.11875 16 2.5V9.5C16 10.8813 14.8813 12 13.5 12H13V10H13.5C13.775 10 14 9.775 14 9.5V2.5C14 2.225 13.775 2 13.5 2ZM0 6C0 4.89688 0.896875 4 2 4H10C11.1031 4 12 4.89688 12 6V14C12 15.1031 11.1031 16 10 16H2C0.896875 16 0 15.1031 0 14V6ZM2 7C2 7.55313 2.44687 8 3 8H9C9.55313 8 10 7.55313 10 7C10 6.44687 9.55313 6 9 6H3C2.44687 6 2 6.44687 2 7Z" fill="#1386EB"/>
</svg>
