<?xml version="1.0" encoding="UTF-8" standalone="no"?>
<!DOCTYPE svg PUBLIC "-//W3C//DTD SVG 1.1//EN" "http://www.w3.org/Graphics/SVG/1.1/DTD/svg11.dtd">
<svg width="100%" height="100%" viewBox="0 0 16 16" version="1.1" xmlns="http://www.w3.org/2000/svg" xmlns:xlink="http://www.w3.org/1999/xlink" xml:space="preserve" xmlns:serif="http://www.serif.com/" style="fill-rule:evenodd;clip-rule:evenodd;stroke-linejoin:round;stroke-miterlimit:2;">
    <g transform="matrix(0.499888,0,0,0.5,7.33097e-13,0)">
        <g id="Page-1">
            <g id="Artboard">
                <g id="icon-instagram-dark">
                    <path id="Shape" d="M16.007,7.796C11.466,7.796 7.803,11.459 7.803,16C7.803,20.541 11.466,24.204 16.007,24.204C20.548,24.204 24.212,20.541 24.212,16C24.212,11.459 20.548,7.796 16.007,7.796ZM16.007,21.334C13.072,21.334 10.673,18.942 10.673,16C10.673,13.058 13.065,10.666 16.007,10.666C18.949,10.666 21.341,13.058 21.341,16C21.341,18.942 18.942,21.334 16.007,21.334ZM26.461,7.46C26.461,8.524 25.604,9.374 24.547,9.374C23.483,9.374 22.633,8.517 22.633,7.46C22.633,6.403 23.49,5.546 24.547,5.546C25.604,5.546 26.461,6.403 26.461,7.46ZM31.895,9.402C31.773,6.839 31.188,4.568 29.31,2.697C27.439,0.827 25.168,0.241 22.605,0.112C19.963,-0.037 12.044,-0.037 9.402,0.112C6.846,0.234 4.575,0.819 2.697,2.69C0.819,4.561 0.241,6.832 0.112,9.395C-0.037,12.037 -0.037,19.956 0.112,22.598C0.234,25.161 0.819,27.432 2.697,29.303C4.575,31.173 6.839,31.759 9.402,31.888C12.044,32.037 19.963,32.037 22.605,31.888C25.168,31.766 27.439,31.181 29.31,29.303C31.181,27.432 31.766,25.161 31.895,22.598C32.045,19.956 32.045,12.044 31.895,9.402ZM28.482,25.433C27.925,26.832 26.846,27.91 25.44,28.474C23.333,29.31 18.335,29.117 16.007,29.117C13.679,29.117 8.674,29.303 6.575,28.474C5.175,27.917 4.097,26.839 3.533,25.433C2.697,23.326 2.89,18.328 2.89,16C2.89,13.672 2.704,8.667 3.533,6.567C4.09,5.168 5.168,4.09 6.575,3.526C8.681,2.69 13.679,2.883 16.007,2.883C18.335,2.883 23.34,2.697 25.44,3.526C26.839,4.083 27.917,5.161 28.482,6.567C29.317,8.674 29.124,13.672 29.124,16C29.124,18.328 29.317,23.333 28.482,25.433Z" style="fill:rgb(16,36,41);fill-rule:nonzero;"/>
                </g>
            </g>
        </g>
    </g>
</svg>
