<?xml version="1.0" encoding="UTF-8" standalone="no"?>
<!DOCTYPE svg PUBLIC "-//W3C//DTD SVG 1.1//EN" "http://www.w3.org/Graphics/SVG/1.1/DTD/svg11.dtd">
<svg width="100%" height="100%" viewBox="0 0 14 16" version="1.1" xmlns="http://www.w3.org/2000/svg" xmlns:xlink="http://www.w3.org/1999/xlink" xml:space="preserve" xmlns:serif="http://www.serif.com/" style="fill-rule:evenodd;clip-rule:evenodd;stroke-linejoin:round;stroke-miterlimit:2;">
    <g transform="matrix(0.03125,0,0,0.03125,0,0)">
        <path d="M160,112C160,76.7 188.7,48 224,48C259.3,48 288,76.7 288,112L288,160L160,160L160,112ZM112,160L48,160C21.5,160 0,181.5 0,208L0,416C0,469 43,512 96,512L352,512C405,512 448,469 448,416L448,208C448,181.5 426.5,160 400,160L336,160L336,112C336,50.1 285.9,0 224,0C162.1,0 112,50.1 112,112L112,160ZM136,256C122.7,256 112,245.3 112,232C112,218.7 122.7,208 136,208C149.3,208 160,218.7 160,232C160,245.3 149.3,256 136,256ZM336,232C336,245.3 325.3,256 312,256C298.7,256 288,245.3 288,232C288,218.7 298.7,208 312,208C325.3,208 336,218.7 336,232Z" style="fill:white;fill-rule:nonzero;"/>
    </g>
</svg>
